<?xml version="1.0" encoding="UTF-8"?>
<svg id="_图层_1" data-name="图层_1" xmlns="http://www.w3.org/2000/svg" version="1.1" viewBox="0 0 1024 973">
  <!-- Generator: Adobe Illustrator 29.4.0, SVG Export Plug-In . SVG Version: 2.1.0 Build 152)  -->
  <path d="M242.87,366.13c-4.01-1-6.55.78-7.65,4.59l-59.49,183.51c-8.53,19.96-38.07,18.45-41.49-3.97-1.18-7.76,4.26-20.8,6.74-28.78,18.63-60.02,39.09-120.17,61.2-178.8,21.46-31.11,73.57-32.25,80.72,10.92,4.7,28.35,4.25,59.15,9.38,87.67,2.47,6.9,6.98,2.94,9.92-1.57,19.23-29.61,37.71-95.97,67.13-112.87s61.25-5.71,68.56,27.78c-7.45,57.31-21.83,113.97-31.81,171.05-.09,14.39,13.18,18.43,21.35,6.28,12.79-47.47,20.22-96.91,30.88-145.12,6.7-30.31,10.55-63.24,49.21-66.79,18.3-1.68,64.25-2.06,81.52,1.45,78.87,16,72.01,120.79,10.64,155.71-36.83,20.95-73.97,9.26-113.22,12.78-3.7.33-5.98.69-7.43,4.57-4.42,11.82-4.55,29.75-8.98,43.02-16.09,48.17-95.59,56.96-108.02,2.96,7.54-55.38,21.5-110.08,31.86-165.11,1.31-10.91-4.61-16.03-11.71-5.72-18.02,26.17-32.04,65.69-48.64,94.36-8.31,14.35-17.67,28.55-35.27,31.73-27.16,4.9-40.38-8.87-44.12-34.37-4.22-28.82-4.3-60.36-9.21-88.79-.39-2.23-1.38-4.31-2.04-6.45ZM514.79,364.29c-5.37.72-7.94,1.6-10.09,6.91-4.22,10.42-12.62,52.63-13.56,64.43-.63,7.93.07,9.66,8.33,10.41,19.29,1.77,63.47,1.74,80.22-6.85,28.73-14.73,36.34-61.76,1.07-72.44-12.99-3.93-52.05-4.31-65.97-2.46Z"/>
  <path d="M855.05,509.95c4.36.63,14.45-2.11,12.96,4.51-1.28,5.69-11.5,2.75-15.85,3.7-6.65,13.91-24.09,26.39-37.49,34.01-67.37,38.32-157.54,2.01-163.66-78.68-7.04-92.79,69.75-182.1,166.75-152.75,20.15,6.1,55.27,28.14,59.79,50.21,5.24,25.56-23.08,41.36-41.05,23.05-2.58-2.63-3.68-6.26-5.99-9.01-22.18-26.46-63.91-28-92.2-11.14-68.28,40.68-57.42,165.51,37.52,145.52,25.1-5.28,37.67-26.8,64.63-24.33,10.44.96,12.07,5.68,14.57,14.93Z"/>
  <path d="M235,612l7.9.1c1.02.88,3.44,15.69,7.09,16.9,2.96-7.22,2.41-19.68,13.01-17v31h-6v-14l-4.12,10.87c-2.12.2-5.8.79-7.41-.85-2.05-2.08-1.68-8.29-4.47-10.03v14h-6v-31Z"/>
  <polygon points="330 612 336.84 612.16 346 630 346 612 352 612 352 643 345.16 642.84 336 625 336 643 330 643 330 612"/>
  <path d="M742,643v-31h15.5c2.9,0,2.73,8.54,2.57,10.57-.18,2.42-1.7,4.51-1.7,4.93,0,.68,1.5,1.82,1.58,3.03.13,2.19.83,12.47-2.45,12.47h-15.5ZM754.01,616.97h-6.02s.01,8.05.01,8.05h6.02s-.01-8.05-.01-8.05ZM754.01,629.97h-6.02s.01,8.05.01,8.05h6.02s-.01-8.05-.01-8.05Z"/>
  <path d="M698,612v26h7v-26h7v27.5c0,4.8-20,4.82-20,1v-28.5h6Z"/>
  <path d="M474.5,612c3.46.97,3.27,18.41,2,21-1.67,3.44-9.23,1.56-12.51,1.99v8.01s-5.99,0-5.99,0v-31h16.5ZM471.01,616.98h-7.02s.01,12.05.01,12.05h7.02s-.01-12.05-.01-12.05Z"/>
  <path d="M514,638h7.01s-.01-5.01-.01-5.01h6.01c-.09,1.5.16,3.05.05,4.55-.21,2.83-.25,4.8-3.58,5.43-3.7.69-14.2.97-15.95-2.99-.92-2.09-.97-19.45-.57-22.53.43-3.36,2.17-5.08,5.5-5.5,9.03-1.15,16.78-1.22,14.56,10.06h-6.01s.01-5.01.01-5.01h-7.01v21.01Z"/>
  <path d="M601,638h7.01s-.01-5.01-.01-5.01h7.01c2.58,12.52-11,11.43-19.1,8.6v-28.19c8.08-2.83,21.68-3.93,19.1,8.6h-7.01s.01-5.01.01-5.01h-7.01v21.01Z"/>
  <polygon points="651 612 651 638 662.01 637.99 662 643 644 643 644 612 651 612"/>
  <rect x="293" y="612" width="7" height="31"/>
  <rect x="383" y="612" width="6" height="31"/>
  <path d="M861.64,494.14l14.42.3c5.07,10.83-8.36,7.41-15.12,7.13-1.55-1.09-1.67-6.69.7-7.42Z"/>
  <path d="M855.64,529.14l14.42.3c5.07,10.83-8.36,7.41-15.12,7.13-1.55-1.09-1.67-6.69.7-7.42Z"/>
  <path d="M878.64,510.14l9.42.3c4.06,8.8-3.43,8.39-10.12,7.13-1.55-1.09-1.67-6.69.7-7.42Z"/>
  <rect x="894.98" y="489.98" width="9.04" height="8.03"/>
</svg>